<?xml version="1.0" encoding="UTF-8" standalone="no"?>
<svg
   xmlns:dc="http://purl.org/dc/elements/1.1/"
   xmlns:cc="http://creativecommons.org/ns#"
   xmlns:rdf="http://www.w3.org/1999/02/22-rdf-syntax-ns#"
   xmlns:svg="http://www.w3.org/2000/svg"
   xmlns="http://www.w3.org/2000/svg"
   xml:space="preserve"
   style="enable-background:new 0 0 512 512;"
   viewBox="0 0 512 512"
   y="0px"
   x="0px"
   id="Capa_1"
   version="1.1"><metadata
     id="metadata553"><rdf:RDF><cc:Work
         rdf:about=""><dc:format>image/svg+xml</dc:format><dc:type
           rdf:resource="http://purl.org/dc/dcmitype/StillImage" /></cc:Work></rdf:RDF></metadata><defs
     id="defs551" /><g
     id="g6"><g
       id="g4"><path
         id="path2"
         d="M210.932,261.84c-3.715,0-6.775,1.003-6.993,4.11c-0.328,4.21-1.202,10.725-11.145,10.725    c-7.54,0-11.692-3.708-11.692-11.527v-27.966c-0.001-7.818,4.151-11.527,11.472-11.527c10.38,0,11.145,6.816,11.364,9.923    c0.109,3.007,3.06,4.11,7.103,4.11c4.807,0,7.102-1.203,7.102-6.415c0-11.627-10.817-19.045-26.005-19.045    c-13.768,0-25.241,6.215-25.241,22.954v27.966c0,16.74,11.364,22.954,25.131,22.954c15.298,0,26.115-7.718,26.115-19.847    C218.143,263.143,215.849,261.84,210.932,261.84z" /></g></g><g
     id="g12"><g
       id="g10"><path
         id="path8"
         d="M255.073,214.228H233.11c-3.278,0-5.354,1.904-5.354,4.01v65.154c0,2.706,3.497,4.11,7.102,4.11    c3.496,0,7.102-1.404,7.102-4.11v-23.255h12.238c14.424,0,25.678-6.315,25.678-22.754v-0.602    C279.876,220.342,268.949,214.228,255.073,214.228z M265.671,238.386c0,7.819-4.371,11.528-11.473,11.528H241.96v-24.259h12.238    c7.103,0,11.473,3.709,11.473,11.528V238.386z" /></g></g><g
     id="g18"><g
       id="g16"><path
         id="path14"
         d="M333.633,214.228c-3.606,0-7.102,1.203-7.102,4.01v46.911c0,7.819-4.48,11.527-12.019,11.527    c-7.54,0-12.02-3.708-12.02-11.527v-46.911c0-2.807-3.606-4.01-7.102-4.01c-3.606,0-7.103,1.203-7.103,4.01v46.911    c0,16.74,11.473,22.954,26.224,22.954c14.642,0,26.224-6.215,26.224-22.954v-46.911    C340.735,215.431,337.129,214.228,333.633,214.228z" /></g></g><g
     id="g24"><g
       id="g22"><circle
         id="circle20"
         r="8.05"
         cy="63.63"
         cx="67" /></g></g><g
     id="g30"><g
       id="g28"><circle
         id="circle26"
         r="8.05"
         cy="63.63"
         cx="101.24" /></g></g><g
     id="g36"><g
       id="g34"><circle
         id="circle32"
         r="8.05"
         cy="63.63"
         cx="135.49" /></g></g><g
     id="g42"><g
       id="g40"><circle
         id="circle38"
         r="8.05"
         cy="63.63"
         cx="169.73" /></g></g><g
     id="g48"><g
       id="g46"><circle
         id="circle44"
         r="8.05"
         cy="63.63"
         cx="203.97" /></g></g><g
     id="g54"><g
       id="g52"><circle
         id="circle50"
         r="8.05"
         cy="63.63"
         cx="238.21" /></g></g><g
     id="g60"><g
       id="g58"><circle
         id="circle56"
         r="8.05"
         cy="63.63"
         cx="272.45" /></g></g><g
     id="g66"><g
       id="g64"><circle
         id="circle62"
         r="8.05"
         cy="63.63"
         cx="306.69" /></g></g><g
     id="g72"><g
       id="g70"><circle
         id="circle68"
         r="8.05"
         cy="63.63"
         cx="340.94" /></g></g><g
     id="g78"><g
       id="g76"><circle
         id="circle74"
         r="8.05"
         cy="63.63"
         cx="375.18" /></g></g><g
     id="g84"><g
       id="g82"><circle
         id="circle80"
         r="8.05"
         cy="63.63"
         cx="409.42" /></g></g><g
     id="g90"><g
       id="g88"><circle
         id="circle86"
         r="8.05"
         cy="63.63"
         cx="443.66" /></g></g><g
     id="g96"><g
       id="g94"><circle
         id="circle92"
         r="8.05"
         cy="98.31"
         cx="67" /></g></g><g
     id="g102"><g
       id="g100"><circle
         id="circle98"
         r="8.05"
         cy="98.31"
         cx="101.24" /></g></g><g
     id="g108"><g
       id="g106"><circle
         id="circle104"
         r="8.05"
         cy="98.31"
         cx="135.49" /></g></g><g
     id="g114"><g
       id="g112"><circle
         id="circle110"
         r="8.05"
         cy="98.31"
         cx="169.73" /></g></g><g
     id="g120"><g
       id="g118"><circle
         id="circle116"
         r="8.05"
         cy="98.31"
         cx="203.97" /></g></g><g
     id="g126"><g
       id="g124"><circle
         id="circle122"
         r="8.05"
         cy="98.31"
         cx="238.21" /></g></g><g
     id="g132"><g
       id="g130"><circle
         id="circle128"
         r="8.05"
         cy="98.31"
         cx="272.45" /></g></g><g
     id="g138"><g
       id="g136"><circle
         id="circle134"
         r="8.05"
         cy="98.31"
         cx="306.69" /></g></g><g
     id="g144"><g
       id="g142"><circle
         id="circle140"
         r="8.05"
         cy="98.31"
         cx="340.94" /></g></g><g
     id="g150"><g
       id="g148"><circle
         id="circle146"
         r="8.05"
         cy="98.31"
         cx="375.18" /></g></g><g
     id="g156"><g
       id="g154"><circle
         id="circle152"
         r="8.05"
         cy="98.31"
         cx="409.42" /></g></g><g
     id="g162"><g
       id="g160"><circle
         id="circle158"
         r="8.05"
         cy="98.31"
         cx="443.66" /></g></g><g
     id="g168"><g
       id="g166"><circle
         id="circle164"
         r="8.05"
         cy="133.3"
         cx="67" /></g></g><g
     id="g174"><g
       id="g172"><circle
         id="circle170"
         r="8.05"
         cy="133.3"
         cx="101.24" /></g></g><g
     id="g180"><g
       id="g178"><circle
         id="circle176"
         r="8.05"
         cy="133.3"
         cx="409.42" /></g></g><g
     id="g186"><g
       id="g184"><circle
         id="circle182"
         r="8.05"
         cy="133.3"
         cx="443.66" /></g></g><g
     id="g192"><g
       id="g190"><circle
         id="circle188"
         r="8.05"
         cy="167.98"
         cx="67" /></g></g><g
     id="g198"><g
       id="g196"><circle
         id="circle194"
         r="8.05"
         cy="167.98"
         cx="101.24" /></g></g><g
     id="g204"><g
       id="g202"><circle
         id="circle200"
         r="8.05"
         cy="167.98"
         cx="409.42" /></g></g><g
     id="g210"><g
       id="g208"><circle
         id="circle206"
         r="8.05"
         cy="167.98"
         cx="443.66" /></g></g><g
     id="g216"><g
       id="g214"><circle
         id="circle212"
         r="8.05"
         cy="202.97"
         cx="67" /></g></g><g
     id="g222"><g
       id="g220"><circle
         id="circle218"
         r="8.05"
         cy="202.97"
         cx="101.24" /></g></g><g
     id="g228"><g
       id="g226"><circle
         id="circle224"
         r="8.05"
         cy="202.97"
         cx="409.42" /></g></g><g
     id="g234"><g
       id="g232"><circle
         id="circle230"
         r="8.05"
         cy="202.97"
         cx="443.66" /></g></g><g
     id="g240"><g
       id="g238"><circle
         id="circle236"
         r="8.05"
         cy="237.65"
         cx="67" /></g></g><g
     id="g246"><g
       id="g244"><circle
         id="circle242"
         r="8.05"
         cy="237.65"
         cx="101.24" /></g></g><g
     id="g252"><g
       id="g250"><circle
         id="circle248"
         r="8.05"
         cy="237.65"
         cx="409.42" /></g></g><g
     id="g258"><g
       id="g256"><circle
         id="circle254"
         r="8.05"
         cy="237.65"
         cx="443.66" /></g></g><g
     id="g264"><g
       id="g262"><circle
         id="circle260"
         r="8.05"
         cy="272.64"
         cx="67" /></g></g><g
     id="g270"><g
       id="g268"><circle
         id="circle266"
         r="8.05"
         cy="272.64"
         cx="101.24" /></g></g><g
     id="g276"><g
       id="g274"><circle
         id="circle272"
         r="8.05"
         cy="272.64"
         cx="409.42" /></g></g><g
     id="g282"><g
       id="g280"><circle
         id="circle278"
         r="8.05"
         cy="272.64"
         cx="443.66" /></g></g><g
     id="g288"><g
       id="g286"><circle
         id="circle284"
         r="8.05"
         cy="307.32"
         cx="67" /></g></g><g
     id="g294"><g
       id="g292"><circle
         id="circle290"
         r="8.05"
         cy="307.32"
         cx="101.24" /></g></g><g
     id="g300"><g
       id="g298"><circle
         id="circle296"
         r="8.05"
         cy="307.32"
         cx="409.42" /></g></g><g
     id="g306"><g
       id="g304"><circle
         id="circle302"
         r="8.05"
         cy="307.32"
         cx="443.66" /></g></g><g
     id="g312"><g
       id="g310"><circle
         id="circle308"
         r="8.05"
         cy="342.31"
         cx="67" /></g></g><g
     id="g318"><g
       id="g316"><circle
         id="circle314"
         r="8.05"
         cy="342.31"
         cx="101.24" /></g></g><g
     id="g324"><g
       id="g322"><circle
         id="circle320"
         r="8.05"
         cy="342.31"
         cx="409.42" /></g></g><g
     id="g330"><g
       id="g328"><circle
         id="circle326"
         r="8.05"
         cy="342.31"
         cx="443.66" /></g></g><g
     id="g336"><g
       id="g334"><circle
         id="circle332"
         r="8.05"
         cy="376.98"
         cx="67" /></g></g><g
     id="g342"><g
       id="g340"><circle
         id="circle338"
         r="8.05"
         cy="376.98"
         cx="101.24" /></g></g><g
     id="g348"><g
       id="g346"><circle
         id="circle344"
         r="8.05"
         cy="376.98"
         cx="409.42" /></g></g><g
     id="g354"><g
       id="g352"><circle
         id="circle350"
         r="8.05"
         cy="376.98"
         cx="443.66" /></g></g><g
     id="g360"><g
       id="g358"><circle
         id="circle356"
         r="8.05"
         cy="411.98"
         cx="67" /></g></g><g
     id="g366"><g
       id="g364"><circle
         id="circle362"
         r="8.05"
         cy="411.98"
         cx="101.24" /></g></g><g
     id="g372"><g
       id="g370"><circle
         id="circle368"
         r="8.05"
         cy="411.98"
         cx="135.49" /></g></g><g
     id="g378"><g
       id="g376"><circle
         id="circle374"
         r="8.05"
         cy="411.98"
         cx="169.73" /></g></g><g
     id="g384"><g
       id="g382"><circle
         id="circle380"
         r="8.05"
         cy="411.98"
         cx="203.97" /></g></g><g
     id="g390"><g
       id="g388"><circle
         id="circle386"
         r="8.05"
         cy="411.98"
         cx="238.21" /></g></g><g
     id="g396"><g
       id="g394"><circle
         id="circle392"
         r="8.05"
         cy="411.98"
         cx="272.45" /></g></g><g
     id="g402"><g
       id="g400"><circle
         id="circle398"
         r="8.05"
         cy="411.98"
         cx="306.69" /></g></g><g
     id="g408"><g
       id="g406"><circle
         id="circle404"
         r="8.05"
         cy="411.98"
         cx="340.94" /></g></g><g
     id="g414"><g
       id="g412"><circle
         id="circle410"
         r="8.05"
         cy="411.98"
         cx="375.18" /></g></g><g
     id="g420"><g
       id="g418"><circle
         id="circle416"
         r="8.05"
         cy="411.98"
         cx="409.42" /></g></g><g
     id="g426"><g
       id="g424"><circle
         id="circle422"
         r="8.05"
         cy="411.98"
         cx="443.66" /></g></g><g
     id="g432"><g
       id="g430"><circle
         id="circle428"
         r="8.05"
         cy="446.65"
         cx="67" /></g></g><g
     id="g438"><g
       id="g436"><circle
         id="circle434"
         r="8.05"
         cy="446.65"
         cx="101.24" /></g></g><g
     id="g444"><g
       id="g442"><circle
         id="circle440"
         r="8.05"
         cy="446.65"
         cx="135.49" /></g></g><g
     id="g450"><g
       id="g448"><circle
         id="circle446"
         r="8.05"
         cy="446.65"
         cx="169.73" /></g></g><g
     id="g456"><g
       id="g454"><circle
         id="circle452"
         r="8.05"
         cy="446.65"
         cx="203.97" /></g></g><g
     id="g462"><g
       id="g460"><circle
         id="circle458"
         r="8.05"
         cy="446.65"
         cx="238.21" /></g></g><g
     id="g468"><g
       id="g466"><circle
         id="circle464"
         r="8.05"
         cy="446.65"
         cx="272.45" /></g></g><g
     id="g474"><g
       id="g472"><circle
         id="circle470"
         r="8.05"
         cy="446.65"
         cx="306.69" /></g></g><g
     id="g480"><g
       id="g478"><circle
         id="circle476"
         r="8.05"
         cy="446.65"
         cx="340.94" /></g></g><g
     id="g486"><g
       id="g484"><circle
         id="circle482"
         r="8.05"
         cy="446.65"
         cx="375.18" /></g></g><g
     id="g492"><g
       id="g490"><circle
         id="circle488"
         r="8.05"
         cy="446.65"
         cx="409.42" /></g></g><g
     id="g498"><g
       id="g496"><circle
         id="circle494"
         r="8.05"
         cy="446.65"
         cx="443.66" /></g></g><g
     id="g504"><g
       id="g502"><path
         id="path500"
         d="M372.397,122.206H139.604c-9.593,0-17.397,7.804-17.397,17.397V236c0,4.142,3.358,7.5,7.5,7.5c4.142,0,7.5-3.358,7.5-7.5    v-96.397c0-1.322,1.076-2.397,2.397-2.397h232.793c1.322,0,2.397,1.075,2.397,2.397V236c0,4.142,3.358,7.5,7.5,7.5    c4.142,0,7.5-3.358,7.5-7.5v-96.397C389.794,130.01,381.99,122.206,372.397,122.206z" /></g></g><g
     id="g510"><g
       id="g508"><path
         id="path506"
         d="M382.294,268.5c-4.142,0-7.5,3.358-7.5,7.5v45.787c0,1.809-0.737,3.577-2.021,4.85l-46.582,46.178    c-1.287,1.276-2.995,1.979-4.808,1.979h-181.78c-1.322,0-2.397-1.075-2.397-2.397V276c0-4.142-3.358-7.5-7.5-7.5    c-4.142,0-7.5,3.358-7.5,7.5v96.397c0,9.593,7.805,17.397,17.397,17.397h181.78c5.795,0,11.253-2.247,15.368-6.327l46.582-46.178    c4.106-4.07,6.461-9.721,6.461-15.502V276C389.794,271.858,386.437,268.5,382.294,268.5z" /></g></g><g
     id="g516"><g
       id="g514"><path
         id="path512"
         d="M504.5,146.815c4.142,0,7.5-3.358,7.5-7.5c0-4.142-3.358-7.5-7.5-7.5h-21.579V88.473H504.5c4.142,0,7.5-3.358,7.5-7.5    c0-4.142-3.358-7.5-7.5-7.5h-21.579V58.72c0-16.344-13.297-29.641-29.641-29.641h-14.753V7.5c0-4.142-3.358-7.5-7.5-7.5    c-4.142,0-7.5,3.358-7.5,7.5v21.579h-43.342V7.5c0-4.142-3.358-7.5-7.5-7.5c-4.142,0-7.5,3.358-7.5,7.5v21.579h-43.343V7.5    c0-4.142-3.358-7.5-7.5-7.5c-4.142,0-7.5,3.358-7.5,7.5v21.579H263.5V7.5c0-4.142-3.358-7.5-7.5-7.5c-4.142,0-7.5,3.358-7.5,7.5    v21.579h-43.342V7.5c0-4.142-3.358-7.5-7.5-7.5c-4.142,0-7.5,3.358-7.5,7.5v21.579h-43.343V7.5c0-4.142-3.358-7.5-7.5-7.5    c-4.142,0-7.5,3.358-7.5,7.5v21.579H88.473V7.5c0-4.142-3.358-7.5-7.5-7.5c-4.142,0-7.5,3.358-7.5,7.5v21.579H58.72    c-16.344,0-29.641,13.297-29.641,29.641v14.753H7.5c-4.142,0-7.5,3.358-7.5,7.5c0,4.142,3.358,7.5,7.5,7.5h21.579v43.342H7.5    c-4.142,0-7.5,3.358-7.5,7.5c0,4.142,3.358,7.5,7.5,7.5h21.579v43.343H7.5c-4.142,0-7.5,3.358-7.5,7.5c0,4.142,3.358,7.5,7.5,7.5    h21.579V248.5H7.5c-4.142,0-7.5,3.358-7.5,7.5c0,4.142,3.358,7.5,7.5,7.5h21.579v43.342H7.5c-4.142,0-7.5,3.358-7.5,7.5    c0,4.142,3.358,7.5,7.5,7.5h21.579v43.343H7.5c-4.142,0-7.5,3.358-7.5,7.5c0,4.142,3.358,7.5,7.5,7.5h21.579v43.342H7.5    c-4.142,0-7.5,3.358-7.5,7.5c0,4.142,3.358,7.5,7.5,7.5h21.579v14.753c0,16.344,13.297,29.641,29.641,29.641h14.753V504.5    c0,4.142,3.358,7.5,7.5,7.5c4.142,0,7.5-3.358,7.5-7.5v-21.579h43.342V504.5c0,4.142,3.358,7.5,7.5,7.5c4.142,0,7.5-3.358,7.5-7.5    v-21.579h43.343V504.5c0,4.142,3.358,7.5,7.5,7.5c4.142,0,7.5-3.358,7.5-7.5v-21.579H248.5V504.5c0,4.142,3.358,7.5,7.5,7.5    c4.142,0,7.5-3.358,7.5-7.5v-21.579h43.342V504.5c0,4.142,3.358,7.5,7.5,7.5c4.142,0,7.5-3.358,7.5-7.5v-21.579h43.343V504.5    c0,4.142,3.358,7.5,7.5,7.5c4.142,0,7.5-3.358,7.5-7.5v-21.579h43.342V504.5c0,4.142,3.358,7.5,7.5,7.5c4.142,0,7.5-3.358,7.5-7.5    v-21.579h14.753c16.344,0,29.641-13.297,29.641-29.641v-14.753H504.5c4.142,0,7.5-3.358,7.5-7.5c0-4.142-3.358-7.5-7.5-7.5    h-21.579v-43.342H504.5c4.142,0,7.5-3.358,7.5-7.5c0-4.142-3.358-7.5-7.5-7.5h-21.579v-43.343H504.5c4.142,0,7.5-3.358,7.5-7.5    c0-4.142-3.358-7.5-7.5-7.5h-21.579V263.5H504.5c4.142,0,7.5-3.358,7.5-7.5c0-4.142-3.358-7.5-7.5-7.5h-21.579v-43.342H504.5    c4.142,0,7.5-3.358,7.5-7.5c0-4.142-3.358-7.5-7.5-7.5h-21.579v-43.343H504.5z M467.921,80.963c0,0.003,0,0.006,0,0.01    c0,0.004,0,0.006,0,0.01v58.323c0,0.003,0,0.006,0,0.01c0,0.004,0,0.006,0,0.01v58.323c0,0.003,0,0.006,0,0.01    c0,0.004,0,0.006,0,0.01v58.323c0,0.003,0,0.006,0,0.01c0,0.004,0,0.006,0,0.01v58.323c0,0.003,0,0.006,0,0.01    c0,0.004,0,0.006,0,0.01v58.323c0,0.003,0,0.006,0,0.01c0,0.004,0,0.006,0,0.01v58.323c0,0.003,0,0.006,0,0.01    c0,0.004,0,0.006,0,0.01v22.243c0,8.073-6.568,14.641-14.641,14.641H58.72c-8.073,0-14.641-6.568-14.641-14.641V58.72    c0-8.073,6.568-14.641,14.641-14.641h394.56c8.073,0,14.641,6.568,14.641,14.641V80.963z" /></g></g><g
     id="g518" /><g
     id="g520" /><g
     id="g522" /><g
     id="g524" /><g
     id="g526" /><g
     id="g528" /><g
     id="g530" /><g
     id="g532" /><g
     id="g534" /><g
     id="g536" /><g
     id="g538" /><g
     id="g540" /><g
     id="g542" /><g
     id="g544" /><g
     id="g546" /></svg>